<?xml version="1.0" encoding="UTF-8" standalone="no"?>
<!DOCTYPE svg PUBLIC "-//W3C//DTD SVG 1.1//EN"
 "http://www.w3.org/Graphics/SVG/1.1/DTD/svg11.dtd">
<!-- Generated by graphviz version 2.43.0 (0)
 -->
<!-- Title: validate_loan_amount Pages: 1 -->
<svg width="1201pt" height="1174pt" style="max-width:100%; height:auto; overflow:visible;"
 viewBox="0.00 0.00 576.60 563.37" xmlns="http://www.w3.org/2000/svg" xmlns:xlink="http://www.w3.org/1999/xlink">
<g id="graph0" class="graph" transform="scale(2.08 2.08) rotate(0) translate(28.8 534.57)">
<title>validate_loan_amount</title>
<polygon fill="white" stroke="transparent" points="-28.8,28.8 -28.8,-534.57 547.8,-534.57 547.8,28.8 -28.8,28.8"/>
<!-- start -->
<g id="node1" class="node">
<title>start</title>
<ellipse fill="#d5e8d4" stroke="#82b366" stroke-width="2" cx="128" cy="-487.38" rx="41.02" ry="18.27"/>
<text text-anchor="middle" x="128" y="-484.58" font-family="Arial" font-size="11.00">START</text>
</g>
<!-- input -->
<g id="node2" class="node">
<title>input</title>
<path fill="#dae8fc" stroke="#6c8ebf" stroke-width="2" d="M154,-432C154,-432 102,-432 102,-432 96,-432 90,-426 90,-420 90,-420 90,-406 90,-406 90,-400 96,-394 102,-394 102,-394 154,-394 154,-394 160,-394 166,-400 166,-406 166,-406 166,-420 166,-420 166,-426 160,-432 154,-432"/>
<text text-anchor="middle" x="128" y="-416.2" font-family="Arial" font-size="11.00">Intrare:</text>
<text text-anchor="middle" x="128" y="-404.2" font-family="Arial" font-size="11.00">amount: int</text>
</g>
<!-- start&#45;&gt;input -->
<g id="edge1" class="edge">
<title>start&#45;&gt;input</title>
<path fill="none" stroke="black" d="M128,-468.86C128,-460.86 128,-451.19 128,-442.2"/>
<polygon fill="black" stroke="black" points="131.5,-442.12 128,-432.12 124.5,-442.12 131.5,-442.12"/>
</g>
<!-- chk1 -->
<g id="node3" class="node">
<title>chk1</title>
<polygon fill="#fff2cc" stroke="#d6b656" stroke-width="2" points="128,-357 0,-319 128,-281 256,-319 128,-357"/>
<text text-anchor="middle" x="128" y="-322.2" font-family="Arial" font-size="11.00">amount &lt; 1000</text>
<text text-anchor="middle" x="128" y="-310.2" font-family="Arial" font-size="11.00">sau amount &gt; 50000?</text>
</g>
<!-- input&#45;&gt;chk1 -->
<g id="edge2" class="edge">
<title>input&#45;&gt;chk1</title>
<path fill="none" stroke="black" d="M128,-393.82C128,-386.13 128,-376.78 128,-367.35"/>
<polygon fill="black" stroke="black" points="131.5,-367.16 128,-357.16 124.5,-367.16 131.5,-367.16"/>
</g>
<!-- err1 -->
<g id="node4" class="node">
<title>err1</title>
<path fill="#f8cecc" stroke="#b85450" stroke-width="2" d="M145.5,-227C145.5,-227 68.5,-227 68.5,-227 62.5,-227 56.5,-221 56.5,-215 56.5,-215 56.5,-201 56.5,-201 56.5,-195 62.5,-189 68.5,-189 68.5,-189 145.5,-189 145.5,-189 151.5,-189 157.5,-195 157.5,-201 157.5,-201 157.5,-215 157.5,-215 157.5,-221 151.5,-227 145.5,-227"/>
<text text-anchor="middle" x="107" y="-211.2" font-family="Arial" font-size="11.00">raise ValueError</text>
<text text-anchor="middle" x="107" y="-199.2" font-family="Arial" font-size="11.00">(suma invalida)</text>
</g>
<!-- chk1&#45;&gt;err1 -->
<g id="edge3" class="edge">
<title>chk1&#45;&gt;err1</title>
<path fill="none" stroke="#b85450" d="M121.24,-282.91C118.39,-268.13 115.12,-251.16 112.44,-237.21"/>
<polygon fill="#b85450" stroke="#b85450" points="115.84,-236.38 110.51,-227.22 108.97,-237.7 115.84,-236.38"/>
<text text-anchor="middle" x="126.5" y="-255" font-family="Arial" font-size="10.00" fill="#b85450"> &#160;Da</text>
</g>
<!-- chk2 -->
<g id="node5" class="node">
<title>chk2</title>
<polygon fill="#fff2cc" stroke="#d6b656" stroke-width="2" points="284,-234 176,-208 284,-182 392,-208 284,-234"/>
<text text-anchor="middle" x="284" y="-205.2" font-family="Arial" font-size="11.00">amount &lt;= 5000?</text>
</g>
<!-- chk1&#45;&gt;chk2 -->
<g id="edge4" class="edge">
<title>chk1&#45;&gt;chk2</title>
<path fill="none" stroke="black" d="M165.37,-291.89C190.68,-274.2 223.93,-250.97 248.78,-233.61"/>
<polygon fill="black" stroke="black" points="251,-236.33 257.2,-227.73 246.99,-230.59 251,-236.33"/>
<text text-anchor="middle" x="229.5" y="-255" font-family="Arial" font-size="10.00"> &#160;Nu</text>
</g>
<!-- small -->
<g id="node6" class="node">
<title>small</title>
<path fill="#d5e8d4" stroke="#82b366" stroke-width="2" d="M261,-127C261,-127 199,-127 199,-127 193,-127 187,-121 187,-115 187,-115 187,-103 187,-103 187,-97 193,-91 199,-91 199,-91 261,-91 261,-91 267,-91 273,-97 273,-103 273,-103 273,-115 273,-115 273,-121 267,-127 261,-127"/>
<text text-anchor="middle" x="230" y="-106.2" font-family="Arial" font-size="11.00">return &quot;small&quot;</text>
</g>
<!-- chk2&#45;&gt;small -->
<g id="edge5" class="edge">
<title>chk2&#45;&gt;small</title>
<path fill="none" stroke="black" d="M271.48,-184.5C263.43,-170.04 252.94,-151.2 244.52,-136.09"/>
<polygon fill="black" stroke="black" points="247.51,-134.26 239.59,-127.23 241.4,-137.67 247.51,-134.26"/>
<text text-anchor="middle" x="268.5" y="-156" font-family="Arial" font-size="10.00"> &#160;Da</text>
</g>
<!-- chk3 -->
<g id="node7" class="node">
<title>chk3</title>
<polygon fill="#fff2cc" stroke="#d6b656" stroke-width="2" points="405,-135 291,-109 405,-83 519,-109 405,-135"/>
<text text-anchor="middle" x="405" y="-106.2" font-family="Arial" font-size="11.00">amount &lt;= 20000?</text>
</g>
<!-- chk2&#45;&gt;chk3 -->
<g id="edge6" class="edge">
<title>chk2&#45;&gt;chk3</title>
<path fill="none" stroke="black" d="M308.2,-187.6C326.62,-172.83 352.18,-152.34 372.41,-136.13"/>
<polygon fill="black" stroke="black" points="374.82,-138.68 380.43,-129.7 370.44,-133.22 374.82,-138.68"/>
<text text-anchor="middle" x="358.5" y="-156" font-family="Arial" font-size="10.00"> &#160;Nu</text>
</g>
<!-- medium -->
<g id="node8" class="node">
<title>medium</title>
<path fill="#d5e8d4" stroke="#82b366" stroke-width="2" d="M387,-36C387,-36 311,-36 311,-36 305,-36 299,-30 299,-24 299,-24 299,-12 299,-12 299,-6 305,0 311,0 311,0 387,0 387,0 393,0 399,-6 399,-12 399,-12 399,-24 399,-24 399,-30 393,-36 387,-36"/>
<text text-anchor="middle" x="349" y="-15.2" font-family="Arial" font-size="11.00">return &quot;medium&quot;</text>
</g>
<!-- chk3&#45;&gt;medium -->
<g id="edge7" class="edge">
<title>chk3&#45;&gt;medium</title>
<path fill="none" stroke="black" d="M391.16,-86C383.26,-73.45 373.33,-57.67 365.09,-44.57"/>
<polygon fill="black" stroke="black" points="367.99,-42.61 359.7,-36.01 362.06,-46.33 367.99,-42.61"/>
<text text-anchor="middle" x="386.5" y="-57" font-family="Arial" font-size="10.00"> &#160;Da</text>
</g>
<!-- large -->
<g id="node9" class="node">
<title>large</title>
<path fill="#d5e8d4" stroke="#82b366" stroke-width="2" d="M491,-36C491,-36 429,-36 429,-36 423,-36 417,-30 417,-24 417,-24 417,-12 417,-12 417,-6 423,0 429,0 429,0 491,0 491,0 497,0 503,-6 503,-12 503,-12 503,-24 503,-24 503,-30 497,-36 491,-36"/>
<text text-anchor="middle" x="460" y="-15.2" font-family="Arial" font-size="11.00">return &quot;large&quot;</text>
</g>
<!-- chk3&#45;&gt;large -->
<g id="edge8" class="edge">
<title>chk3&#45;&gt;large</title>
<path fill="none" stroke="black" d="M418.6,-86C426.35,-73.45 436.1,-57.67 444.2,-44.57"/>
<polygon fill="black" stroke="black" points="447.21,-46.35 449.49,-36.01 441.26,-42.67 447.21,-46.35"/>
<text text-anchor="middle" x="446.5" y="-57" font-family="Arial" font-size="10.00"> &#160;Nu</text>
</g>
</g>
</svg>
